<svg width="19" height="19" viewBox="0 0 19 19" fill="none" xmlns="http://www.w3.org/2000/svg">
<g clip-path="url(#clip0)">
<path d="M16.569 11.4655C16.569 15.3506 13.4195 18.5 9.53448 18.5C5.64945 18.5 2.5 15.3506 2.5 11.4655C2.5 10.2087 2.93423 8.89064 3.61895 7.60007C4.30202 6.3126 5.2188 5.08164 6.14576 4.00763C7.07148 2.93504 7.99871 2.02891 8.69506 1.39065C9.04291 1.07182 9.3323 0.820607 9.53399 0.649697C9.53415 0.649557 9.53432 0.649417 9.53448 0.649277C9.53465 0.649417 9.53481 0.649557 9.53498 0.649697C9.73666 0.820607 10.0261 1.07182 10.3739 1.39065C11.0703 2.02891 11.9975 2.93504 12.9232 4.00763C13.8502 5.08164 14.7669 6.3126 15.45 7.60007C16.1347 8.89064 16.569 10.2087 16.569 11.4655ZM9.60044 15.6616C11.8814 15.6616 13.7306 13.8125 13.7306 11.5315C13.7306 9.25053 11.8814 7.40141 9.60044 7.40141C7.31944 7.40141 5.47032 9.25053 5.47032 11.5315C5.47032 13.8125 7.31944 15.6616 9.60044 15.6616Z" fill="white" stroke="black"/>
</g>
<defs>
<clipPath id="clip0">
<rect width="19" height="19" fill="white"/>
</clipPath>
</defs>
</svg>
